<svg width="35" height="35" viewBox="0 0 37 36" fill="none" xmlns="http://www.w3.org/2000/svg">
<path fill-rule="evenodd" clip-rule="evenodd" d="M8.49426 0.730835C9.32269 0.730835 9.99426 1.40241 9.99426 2.23083V5.56609C15.6497 5.06244 21.3388 5.06244 26.9943 5.5661V2.23083C26.9943 1.40241 27.6658 0.730835 28.4943 0.730835C29.3227 0.730835 29.9943 1.40241 29.9943 2.23083V5.86371C32.9804 6.28592 35.3394 8.64777 35.7387 11.6605L35.9118 12.9664C36.6399 18.4591 36.577 24.0277 35.7251 29.5025C35.3031 32.2146 33.0998 34.2977 30.3683 34.5671L27.9823 34.8024C21.6722 35.4247 15.3162 35.4247 9.00611 34.8024L6.62011 34.5671C3.88862 34.2977 1.68531 32.2146 1.26329 29.5025C0.41137 24.0277 0.348488 18.4591 1.07656 12.9664L1.24966 11.6605C1.64902 8.64774 4.00812 6.28586 6.99426 5.86369V2.23083C6.99426 1.40241 7.66584 0.730835 8.49426 0.730835ZM9.38459 8.63644C15.443 8.03899 21.5454 8.03899 27.6038 8.63644L29.4147 8.81503C31.1482 8.98598 32.5359 10.3279 32.7648 12.0547L32.9379 13.3606C32.9983 13.8168 33.0531 14.2736 33.102 14.7308H3.88639C3.93535 14.2736 3.99007 13.8168 4.05055 13.3606L4.22365 12.0547C4.45254 10.3279 5.84019 8.98598 7.57369 8.81503L9.38459 8.63644ZM3.64792 17.7308C3.45156 21.507 3.64502 25.2973 4.22761 29.0413C4.43929 30.4016 5.54445 31.4465 6.91453 31.5816L9.30053 31.8169C15.4148 32.4199 21.5736 32.4199 27.6879 31.8169L30.0739 31.5816C31.444 31.4465 32.5491 30.4016 32.7608 29.0413C33.3434 25.2973 33.5368 21.507 33.3405 17.7308H3.64792Z" fill="#FFEE7C"/>
</svg>
