<svg width="35" height="35" viewBox="0 0 45 44" fill="none" xmlns="http://www.w3.org/2000/svg">
<path fill-rule="evenodd" clip-rule="evenodd" d="M11.9905 10.2925C11.9905 7.0018 14.6581 4.33417 17.9488 4.33417C19.7917 4.33417 21.4392 5.17084 22.5321 6.48506C23.6251 5.17084 25.2726 4.33417 27.1155 4.33417C30.4062 4.33417 33.0738 7.0018 33.0738 10.2925C33.0738 11.4738 32.7301 12.5747 32.1371 13.5008H33.5321C36.3166 13.5008 38.5738 15.7581 38.5738 18.5425V22.2092C38.5738 23.6835 37.5794 24.9255 36.2248 25.3011C36.4889 28.6499 36.3359 32.0205 35.7679 35.3353C35.4287 37.3147 33.8211 38.831 31.8253 39.0541L30.1488 39.2415C25.0868 39.8072 19.9775 39.8072 14.9155 39.2415L13.239 39.0541C11.2432 38.831 9.63561 37.3147 9.29642 35.3353C8.7284 32.0205 8.57542 28.6499 8.83954 25.3011C7.48488 24.9255 6.49048 23.6835 6.49048 22.2092V18.5425C6.49048 15.7581 8.74771 13.5008 11.5321 13.5008H12.9271C12.3342 12.5747 11.9905 11.4738 11.9905 10.2925ZM21.1571 10.2925C21.1571 8.52059 19.7207 7.08417 17.9488 7.08417C16.1769 7.08417 14.7405 8.52059 14.7405 10.2925C14.7405 12.0644 16.1769 13.5008 17.9488 13.5008C19.7207 13.5008 21.1571 12.0644 21.1571 10.2925ZM27.1155 13.5008C28.8874 13.5008 30.3238 12.0644 30.3238 10.2925C30.3238 8.52059 28.8874 7.08417 27.1155 7.08417C25.3436 7.08417 23.9071 8.52059 23.9071 10.2925C23.9071 12.0644 25.3436 13.5008 27.1155 13.5008ZM9.24048 18.5425C9.24048 17.2768 10.2665 16.2508 11.5321 16.2508H21.1571V22.6675H9.69881C9.44568 22.6675 9.24048 22.4623 9.24048 22.2092V18.5425ZM23.9071 25.4175H33.4753C33.7325 28.5719 33.5925 31.748 33.0574 34.8709C32.9251 35.6428 32.2982 36.2341 31.5199 36.3211L29.8433 36.5085C27.8701 36.729 25.8893 36.86 23.9071 36.9014V25.4175ZM23.9071 22.6675H35.3655C35.6186 22.6675 35.8238 22.4623 35.8238 22.2092V18.5425C35.8238 17.2768 34.7978 16.2508 33.5321 16.2508H23.9071V22.6675ZM21.1571 25.4175V36.9014C19.175 36.86 17.1942 36.729 15.221 36.5085L13.5444 36.3211C12.7661 36.2341 12.1392 35.6428 12.0069 34.8709C11.4718 31.748 11.3318 28.5719 11.589 25.4175H21.1571Z" fill="#FFEE7C"/>
</svg>
