<svg width="35" height="35" viewBox="0 0 49 48" fill="none" xmlns="http://www.w3.org/2000/svg">
<path d="M24.5379 21.5C25.3663 21.5 26.0379 22.1716 26.0379 23V33C26.0379 33.8284 25.3663 34.5 24.5379 34.5C23.7095 34.5 23.0379 33.8284 23.0379 33L23.0379 23C23.0379 22.1716 23.7095 21.5 24.5379 21.5Z" fill="#FFEE7C"/>
<path d="M24.5379 18C25.6425 18 26.5379 17.1046 26.5379 16C26.5379 14.8954 25.6425 14 24.5379 14C23.4333 14 22.5379 14.8954 22.5379 16C22.5379 17.1046 23.4333 18 24.5379 18Z" fill="#FFEE7C"/>
<path fill-rule="evenodd" clip-rule="evenodd" d="M15.1714 7.53752C21.3465 6.84736 27.7293 6.84736 33.9044 7.53752C37.5571 7.94577 40.5069 10.8231 40.9366 14.497C41.6751 20.8108 41.6751 27.1892 40.9366 33.503C40.5069 37.177 37.5571 40.0543 33.9044 40.4625C27.7293 41.1527 21.3465 41.1527 15.1714 40.4625C11.5186 40.0543 8.56881 37.177 8.13911 33.503C7.40065 27.1892 7.40065 20.8108 8.13911 14.497C8.56881 10.8231 11.5186 7.94577 15.1714 7.53752ZM33.5712 10.519C27.6175 9.85355 21.4582 9.85355 15.5046 10.519C13.2157 10.7748 11.3836 12.5813 11.1188 14.8455C10.4074 20.9278 10.4074 27.0722 11.1188 33.1545C11.3836 35.4188 13.2157 37.2253 15.5046 37.4811C21.4582 38.1465 27.6175 38.1465 33.5712 37.4811C35.86 37.2253 37.6921 35.4188 37.9569 33.1545C38.6683 27.0723 38.6683 20.9278 37.9569 14.8455C37.6921 12.5813 35.86 10.7748 33.5712 10.519Z" fill="#FFEE7C"/>
</svg>
