<svg width="27" height="27" viewBox="0 0 27 27" fill="none" xmlns="http://www.w3.org/2000/svg">
<path fill-rule="evenodd" clip-rule="evenodd" d="M16.9782 18.525C13.1133 21.6206 7.45575 21.3769 3.87294 17.7941C0.0287209 13.9499 0.0287209 7.71717 3.87294 3.87294C7.71717 0.0287205 13.9499 0.0287212 17.7941 3.87294C21.3769 7.45575 21.6206 13.1132 18.525 16.9782L26.0437 24.4969C26.4708 24.924 26.4708 25.6165 26.0437 26.0436C25.6165 26.4708 24.924 26.4708 24.4969 26.0436L16.9782 18.525ZM5.41974 16.2473C2.42979 13.2574 2.42979 8.40969 5.41974 5.41974C8.40969 2.42979 13.2574 2.42979 16.2473 5.41974C19.2351 8.4075 19.2373 13.2502 16.2539 16.2407C16.2517 16.2429 16.2495 16.2451 16.2473 16.2473C16.2451 16.2495 16.2429 16.2517 16.2407 16.2539C13.2503 19.2373 8.4075 19.2351 5.41974 16.2473Z" fill="white"/>
</svg>
